<?xml version="1.0" encoding="UTF-8"?>
<svg id="Layer_2" data-name="Layer 2" xmlns="http://www.w3.org/2000/svg" viewBox="0 0 380.58 387.31">
  <g id="Layer_1-2" data-name="Layer 1">
    <g>
      <path d="m378.79,252.49c-1.45-2.48-5.08-6.63-13.14-6.63-4.04,0-8.02,1.05-9.67,1.55-15.92,2.93-28.96,4.18-43.52,4.18-88.73,0-158.24-74.85-158.24-170.4,0-18.87,2.92-37.39,8.67-55.08,1.18-3.05,4.13-12.45-.72-19.63-2-2.96-5.93-6.49-13.33-6.49-3.26,0-6.88.68-11.07,2.08-38.49,12.88-73.28,37.96-97.97,70.6C13.77,107.12,0,147.74,0,190.15c0,108.72,88.45,197.17,197.17,197.17,38.14,0,73.91-11.26,106.31-33.48,28.9-19.81,54.16-48.09,73.05-81.79,1.66-2.96,6.71-11.97,2.26-19.55Zm-14.47,12.71c-17.85,31.83-41.62,58.49-68.76,77.09-30.03,20.58-63.13,31.02-98.4,31.02-101,0-183.17-82.17-183.17-183.17,0-39.33,12.79-77.03,36.98-109.02,23.01-30.42,55.41-53.77,91.25-65.77,3.35-1.12,5.45-1.36,6.62-1.36s1.62.21,1.72.32c.57.84.35,4.02-.78,6.86l-.15.41c-6.26,19.15-9.43,39.2-9.43,59.61,0,103.4,75.65,184.4,172.24,184.4,15.58,0,29.48-1.34,46.46-4.49l.43-.08.42-.13c1.2-.38,3.79-1.03,5.88-1.03.36,0,.65.02.87.04-.15.83-.63,2.49-2.2,5.29Z" fill="#fff"/>
      <path d="m238.09,125.46l-3.92,19.76c-.64,3.24.58,6.49,3.2,8.5,2.53,1.94,6.16,2.31,9.04.89l18.07-8.91,17.6,9.84c1.28.71,2.72,1.09,4.18,1.09,1.75,0,3.43-.52,4.87-1.51,2.72-1.87,4.12-5.06,3.64-8.32l-2.89-19.94,14.78-13.68c2.42-2.24,3.34-5.59,2.41-8.77-.94-3.16-3.54-5.47-6.79-6.03l-19.85-3.41-8.44-18.28c-1.38-3-4.29-4.91-7.51-5h-.3c-3.21,0-6.12,1.76-7.61,4.59l-9.38,17.83-20.01,2.38c-3.27.39-5.99,2.56-7.09,5.67-1.1,3.11-.36,6.51,1.95,8.87l14.05,14.43Zm20.06-18.32l7.72-14.66,6.94,15.04,16.33,2.81-12.16,11.25,2.37,16.39-14.46-8.09-14.86,7.32,3.22-16.25-11.56-11.87,16.45-1.95Z" fill="#fff"/>
    </g>
  </g>
</svg>