<?xml version="1.0" encoding="UTF-8"?>
<svg id="Layer_2" data-name="Layer 2" xmlns="http://www.w3.org/2000/svg" viewBox="0 0 408.46 446.75">
  <g id="Layer_1-2" data-name="Layer 1">
    <g>
      <path d="m406.79,214.65c-1.34-2.3-4.7-6.15-12.06-6.15-3.51,0-6.96.9-8.45,1.34-13.41,2.46-24.39,3.52-36.66,3.52-74.65,0-133.12-63.01-133.12-143.44,0-15.88,2.45-31.47,7.29-46.35,1.06-2.75,3.65-11.11-.73-17.6-2.6-3.85-6.93-5.97-12.18-5.97-2.88,0-6.06.6-9.72,1.82-32.84,10.99-62.53,32.39-83.59,60.24-22.23,29.39-33.98,64.06-33.98,100.25,0,27.35,6.56,53.2,18.19,76.05,4.75-1,9.59-1.83,14.51-2.48-11.92-21.88-18.7-46.95-18.7-73.57,0-33.12,10.77-64.87,31.15-91.81,19.38-25.62,46.68-45.3,76.87-55.41,2.71-.91,4.36-1.1,5.28-1.1.27,0,.47.02.62.04.14.91-.14,2.92-.81,4.59l-.15.41c-5.34,16.34-8.05,33.46-8.05,50.88,0,88.28,64.62,157.44,147.12,157.44,13.28,0,25.12-1.14,39.6-3.82l.43-.08.42-.13c.83-.27,2.5-.69,4-.8-.26.7-.68,1.66-1.39,2.92-15.05,26.85-35.1,49.33-57.98,65.02-19.98,13.69-41.58,22.03-64.4,24.94.9,1.59,1.8,3.21,2.68,4.85,1.51,2.82,2.8,5.61,3.88,8.36,23.26-3.69,45.3-12.58,65.76-26.61,24.64-16.89,46.17-41,62.28-69.71,1.48-2.64,5.99-10.68,1.91-17.64Z" fill="#fff"/>
      <path d="m209.18,311.82c-2.92-5.4-9.21-15.57-19.55-25.24-13.69-12.81-37.31-27.17-72.07-22.8-27.66,3.48-49.39,17.8-62.84,41.43-4.37,7.68-9.95,20.09-12.73,36.82-24.29,5.03-42,26.42-42,51.83,0,29.16,23.59,52.89,52.58,52.89l159.42-.02-.03-.57c33.72-3.7,60.04-32.36,60.04-67.05s-27.78-64.91-62.82-67.29Zm-4.63,120.75h-7.43v.16s-144.54.02-144.54.02c-21.27,0-38.58-17.45-38.58-38.89,0-20.07,14.99-36.72,34.86-38.74l5.14-.52,1.02-5.06.2-1.21c2.47-19.13,13.65-64.32,64.09-70.65,3.72-.47,7.36-.7,10.93-.7,18.84,0,35.44,6.53,49.46,19.48,6.09,5.62,10.59,11.52,13.64,16.16-21.66,3.67-40.21,17.8-49.63,37.41h16.03c9.65-14.78,26.35-24.35,44.82-24.35,29.47,0,53.45,23.98,53.45,53.45s-23.98,53.45-53.45,53.45Z" fill="#fff"/>
    </g>
  </g>
</svg>