<?xml version="1.0" encoding="UTF-8"?>
<svg id="Layer_2" data-name="Layer 2" xmlns="http://www.w3.org/2000/svg" viewBox="0 0 476.54 410.26">
  <g id="Layer_1-2" data-name="Layer 1">
    <g>
      <rect x="253.34" width="14" height="54.45" fill="#fff"/>
      <rect x="373.08" y="80.28" width="54.78" height="14" transform="translate(30.77 264.25) rotate(-37.87)" fill="#fff"/>
      <rect x="422.09" y="225.22" width="54.45" height="14" fill="#fff"/>
      <rect x="383.86" y="349.67" width="14" height="45.35" transform="translate(-148.79 358.47) rotate(-42.14)" fill="#fff"/>
      <rect x="102.8" y="58.29" width="14" height="51.57" transform="translate(-22.87 123.12) rotate(-53.84)" fill="#fff"/>
      <path d="m257.95,81.77c-69.95,0-128.57,49.41-142.82,115.15,4.53.4,9.18.99,13.93,1.81,13.32-58.87,66.05-102.96,128.89-102.96,72.86,0,132.14,59.28,132.14,132.14,0,56.86-36.1,105.44-86.58,124.04-.21,5.03-.84,10.18-1.92,15.44,59.33-18.6,102.5-74.1,102.5-139.48,0-80.58-65.56-146.14-146.14-146.14Z" fill="#fff"/>
      <path d="m209.18,275.33c-2.92-5.4-9.21-15.57-19.55-25.24-13.69-12.81-37.31-27.17-72.07-22.8-27.66,3.48-49.39,17.8-62.84,41.43-4.37,7.68-9.95,20.09-12.73,36.82-24.29,5.03-42,26.42-42,51.83,0,29.16,23.59,52.89,52.58,52.89l159.42-.02-.03-.57c33.72-3.7,60.04-32.36,60.04-67.05s-27.78-64.91-62.82-67.29Zm-4.63,120.75h-7.43v.16s-144.54.02-144.54.02c-21.27,0-38.58-17.44-38.58-38.89,0-20.07,14.99-36.72,34.86-38.74l5.14-.52,1.02-5.06.2-1.21c2.47-19.13,13.65-64.32,64.09-70.65,3.72-.47,7.36-.7,10.93-.7,18.84,0,35.44,6.53,49.46,19.48,6.09,5.62,10.59,11.52,13.64,16.16-21.66,3.67-40.21,17.8-49.63,37.41h16.03c9.65-14.79,26.35-24.35,44.82-24.35,29.47,0,53.45,23.98,53.45,53.45s-23.98,53.45-53.45,53.45Z" fill="#fff"/>
    </g>
  </g>
</svg>