<svg width="52" height="62" viewBox="0 0 52 62" fill="none" xmlns="http://www.w3.org/2000/svg">
<path d="M51.44 18.03C51.44 12.21 47.57 7.3 42.26 5.71C42.31 5.55 42.36 5.38 42.4 5.21C42.83 3.34 42.69 1.98 41.95 1.05C41.58 0.58 40.86 0 39.6 0C39.43 0 39.25 0.01 39.07 0.03H12.37C12.19 0.01 12.01 0 11.84 0C10.58 0 9.86 0.57 9.49 1.05C8.75 1.98 8.6 3.34 9.04 5.21C9.08 5.38 9.13 5.55 9.18 5.71C3.87 7.3 0 12.21 0 18.03V51.46H7.72V61.75H43.72V51.46H51.44V18.03ZM39.94 2.64C39.94 2.64 40.25 3.06 39.9 4.62C39.25 7.4 36.02 9.03 33.42 9.91C32.07 10.36 30.75 10.66 29.69 10.86C31.99 6.77 36.79 2.99 39.21 2.6H39.29C39.39 2.57 39.5 2.57 39.6 2.57C39.73 2.57 39.89 2.59 39.94 2.64ZM33.72 2.6C33.2 2.99 32.68 3.42 32.15 3.89C29.6 6.17 27.62 8.85 26.61 11.34H24.82C23.82 8.85 21.84 6.17 19.28 3.89C18.76 3.43 18.23 3 17.71 2.6H33.71H33.72ZM11.5 2.64C11.55 2.59 11.7 2.57 11.84 2.57V2.6H12.23C14.64 2.99 19.45 6.77 21.75 10.86C20.71 10.66 19.4 10.37 18.06 9.91C15.45 9.04 12.19 7.41 11.54 4.61C11.18 3.05 11.49 2.65 11.5 2.63V2.64ZM48.87 48.88C48.87 48.18 48.29 47.6 47.58 47.6C46.87 47.6 46.29 48.17 46.29 48.88C46.29 48.18 45.72 47.6 45.01 47.6C44.3 47.6 43.72 48.17 43.72 48.88V20.6H41.15V59.17H10.29V20.6H7.72V48.88C7.72 48.18 7.15 47.6 6.43 47.6C5.71 47.6 5.14 48.17 5.14 48.88C5.14 48.18 4.57 47.6 3.85 47.6C3.13 47.6 2.56 48.17 2.56 48.88V18.03C2.56 15.29 3.64 12.7 5.58 10.75C6.93 9.4 8.59 8.48 10.39 8.04C10.89 8.7 11.51 9.32 12.27 9.88C13.57 10.85 15.24 11.7 17.24 12.36C18.42 12.75 19.57 13.04 20.57 13.26V23.18C20.57 23.89 21.15 24.47 21.86 24.47C22.57 24.47 23.15 23.9 23.15 23.18V13.91H28.29V23.18C28.29 23.89 28.86 24.47 29.58 24.47C30.3 24.47 30.87 23.9 30.87 23.18V13.26C31.87 13.05 33.02 12.76 34.2 12.36C36.2 11.7 37.87 10.85 39.17 9.88C39.92 9.32 40.55 8.7 41.05 8.04C42.86 8.48 44.52 9.41 45.86 10.75C47.8 12.7 48.88 15.28 48.88 18.03V48.88H48.87Z" fill="#00A8E8"/>
</svg>
