<svg width="39" height="62" viewBox="0 0 39 62" fill="none" xmlns="http://www.w3.org/2000/svg">
<path d="M36.02 0H2.57L0 61.75H15.44L19.3 39.88L23.16 61.75H38.6L36.02 0ZM33.86 9.94C30.57 9.24 28.22 7.9 26.78 6.85C26.59 6.71 26.41 6.57 26.24 6.44H33.71L33.86 9.94ZM4.88 6.43H12.34C12.17 6.56 11.99 6.7 11.8 6.84C10.36 7.9 8.01 9.24 4.73 9.93L4.88 6.43ZM11.58 3.86V2.57H18.01V3.86H11.58ZM20.58 2.57H27.01V3.86H20.58V2.57ZM33.6 3.86H29.58V2.57H33.54L33.59 3.86H33.6ZM9 2.57V3.86H4.98L5.03 2.57H8.99H9ZM2.68 59.17L2.73 57.88H13.5L13.27 59.17H2.68ZM21.83 39.43L19.3 25.07L16.77 39.43L13.97 55.31H2.84L4.62 12.57C11.27 11.36 14.87 7.8 16.05 6.42H18V10.28C18 10.99 18.58 11.57 19.29 11.57C20 11.57 20.58 10.99 20.58 10.28V6.42H22.53C23.71 7.8 27.32 11.36 33.96 12.57L35.74 55.31H24.62L21.82 39.43H21.83ZM25.31 59.17L25.08 57.88H35.85L35.9 59.17H25.3H25.31Z" fill="#00A8E8"/>
</svg>
