<?xml version="1.0" encoding="UTF-8"?>
<svg id="Layer_2" data-name="Layer 2" xmlns="http://www.w3.org/2000/svg" viewBox="0 0 463.4 553.09">
  <g id="Layer_1-2" data-name="Layer 1">
    <g>
      <rect x="292.23" y="1.26" width="14" height="26.73" transform="translate(4.81 70.02) rotate(-13.45)" fill="#fff"/>
      <rect x="373.67" y="21.06" width="29.2" height="14" transform="translate(172.1 351.81) rotate(-60.4)" fill="#fff"/>
      <rect x="432.16" y="88.19" width="27.13" height="14" transform="translate(4.69 210.17) rotate(-26.67)" fill="#fff"/>
      <rect x="440.19" y="177.84" width="14" height="29.77" transform="translate(143.32 573.23) rotate(-74.7)" fill="#fff"/>
      <rect x="210.91" y="43.33" width="14" height="24.7" transform="translate(26.41 173.62) rotate(-45.96)" fill="#fff"/>
      <path d="m320.88,35.74c-4.4,0-8.85.27-13.24.8-41.5,5-74.82,32.7-89.05,69.16,4.95-.61,10.24-1.08,15.82-1.33,13.64-28.61,41.18-49.87,74.91-53.94,3.84-.46,7.73-.7,11.57-.7,48.26,0,89.02,36.19,94.8,84.19,3.06,25.36-3.95,50.39-19.72,70.48-.94,1.19-1.9,2.36-2.88,3.5,1.44,3.18,2.85,6.45,4.21,9.83.6,1.48,1.17,2.93,1.74,4.38,2.79-2.86,5.45-5.87,7.95-9.06,18.08-23.03,26.11-51.73,22.6-80.8-6.63-55.02-53.36-96.51-108.7-96.51Z" fill="#fff"/>
      <path d="m311.86,204.86c-3.76-7.27-13.29-23.64-29.93-39.2-20.23-18.93-55.13-40.14-106.53-33.68-40.84,5.13-72.91,26.27-92.75,61.13-6.71,11.78-15.33,31.08-19.3,57.22C26.87,256.67,0,288.26,0,325.97c0,20.53,7.88,39.79,22.19,54.23,14.36,14.49,33.55,22.47,54.05,22.47l238.28-.03-.03-.52c51.04-3.8,91.41-46.55,91.41-98.55s-41.76-96.21-94.04-98.71Zm-4.78,183.53h-7.43v.25s-223.41.03-223.41.03c-34.32,0-62.24-28.13-62.24-62.7,0-32.35,24.17-59.2,56.22-62.46l5.15-.52,1.01-5.07.26-1.58c3.86-29.9,21.37-100.52,100.5-110.46,5.83-.73,11.52-1.1,17.1-1.1,29.62,0,55.71,10.31,77.74,30.75,11.64,10.8,19.54,22.21,24.1,29.83-33.46,3.76-62.56,24.48-77.39,54.01h15.98c15.09-24.59,42.27-40.62,72.4-40.62,46.77,0,84.82,38.05,84.82,84.82s-38.05,84.82-84.82,84.82Z" fill="#fff"/>
      <polygon points="334.7 433.85 314.46 481.09 329.69 481.09 349.63 434.55 348 433.85 334.7 433.85" fill="#fff"/>
      <polygon points="255.11 433.85 241.82 433.85 221.57 481.09 236.8 481.09 256.75 434.55 255.11 433.85" fill="#fff"/>
      <polygon points="165.43 433.85 152.14 433.85 131.89 481.09 147.12 481.09 167.07 434.55 165.43 433.85" fill="#fff"/>
      <polygon points="82.19 434.55 80.55 433.85 67.25 433.85 47.01 481.09 62.24 481.09 82.19 434.55" fill="#fff"/>
      <polygon points="61.31 552.19 63.41 553.09 76.16 553.09 96.36 505.96 81.12 505.96 61.31 552.19" fill="#fff"/>
      <polygon points="149.39 552.19 151.49 553.09 164.24 553.09 184.44 505.96 169.21 505.96 149.39 552.19" fill="#fff"/>
      <polygon points="242.28 552.19 244.37 553.09 257.13 553.09 277.32 505.96 262.09 505.96 242.28 552.19" fill="#fff"/>
    </g>
  </g>
</svg>