<?xml version="1.0" encoding="UTF-8"?>
<svg id="Layer_2" data-name="Layer 2" xmlns="http://www.w3.org/2000/svg" viewBox="0 0 513.9 584.85">
  <g id="Layer_1-2" data-name="Layer 1">
    <g>
      <path d="m512.37,172.84c-1.23-2.1-4.27-5.62-10.87-5.62-2.91,0-5.7.69-7.11,1.11-10.63,1.95-19.35,2.78-29.07,2.78-59.09,0-105.38-49.92-105.38-113.65,0-12.58,1.94-24.93,5.77-36.71.92-2.42,3.12-9.62-.74-15.35-2.35-3.48-6.23-5.4-10.92-5.4-2.46,0-5.16.5-8.24,1.53-26.6,8.9-50.65,26.23-67.71,48.79-15.15,20.04-24.27,43.11-26.79,67.39,4.33,1.42,8.89,3.11,13.59,5.1,1.68-23.08,10.01-45.07,24.36-64.04,15.38-20.33,37.04-35.94,60.99-43.96,1.25-.42,2.18-.63,2.83-.72-.1.58-.27,1.22-.48,1.73l-.15.41c-4.33,13.25-6.52,27.12-6.52,41.24,0,71.58,52.44,127.65,119.38,127.65,10.74,0,20.31-.92,32.01-3.09l.43-.08.42-.13c.1-.03.22-.07.35-.1-11.96,21.26-27.85,39.06-45.97,51.48-7.5,5.14-15.29,9.34-23.34,12.57,2.85,3.59,5.57,7.5,8.11,11.77,7.95-3.43,15.68-7.68,23.14-12.8,19.94-13.67,37.35-33.16,50.37-56.38,1.28-2.29,5.19-9.26,1.52-15.53Z" fill="#fff"/>
      <path d="m336.3,218.3c-3.93-7.67-14.24-25.53-32.4-42.53-21.79-20.38-59.38-43.22-114.74-36.27-43.97,5.53-78.51,28.28-99.87,65.82-7.26,12.76-16.61,33.69-20.87,62.09C29.05,274.04,0,308.07,0,348.7c0,22.05,8.46,42.73,23.83,58.24,15.42,15.56,36.03,24.13,58.04,24.13l257.05-.03-.03-.52c55.17-3.82,98.89-49.92,98.89-106.04s-45.09-103.66-101.48-106.19Zm-4.81,198.48h-7.42l.02.27-242.21.03c-37.42,0-67.87-30.67-67.87-68.37,0-35.28,26.36-64.56,61.3-68.11l5.14-.52,1.02-5.07.28-1.68c4.19-32.46,23.21-109.14,109.17-119.94,6.33-.8,12.52-1.19,18.57-1.19,32.18,0,60.53,11.2,84.47,33.43,13.01,12.08,21.71,24.85,26.59,33.12-36.26,3.77-67.87,26.04-83.99,57.93h15.98c16.38-26.92,46.05-44.5,78.95-44.5,50.89,0,92.29,41.4,92.29,92.29s-41.4,92.29-92.29,92.29Z" fill="#fff"/>
      <polygon points="361.27 465.61 341.02 512.85 356.25 512.85 376.2 466.31 374.57 465.61 361.27 465.61" fill="#fff"/>
      <polygon points="281.68 465.61 268.39 465.61 248.14 512.85 263.37 512.85 283.32 466.31 281.68 465.61" fill="#fff"/>
      <polygon points="192 465.61 178.7 465.61 158.46 512.85 173.69 512.85 193.63 466.31 192 465.61" fill="#fff"/>
      <polygon points="108.75 466.31 107.12 465.61 93.82 465.61 73.58 512.85 88.81 512.85 108.75 466.31" fill="#fff"/>
      <polygon points="87.88 583.95 89.97 584.85 102.73 584.85 122.92 537.72 107.69 537.72 87.88 583.95" fill="#fff"/>
      <polygon points="175.96 583.95 178.06 584.85 190.81 584.85 211.01 537.72 195.78 537.72 175.96 583.95" fill="#fff"/>
      <polygon points="268.85 583.95 270.94 584.85 283.69 584.85 303.89 537.72 288.66 537.72 268.85 583.95" fill="#fff"/>
    </g>
  </g>
</svg>