<svg width="62" height="31" viewBox="0 0 62 31" fill="none" xmlns="http://www.w3.org/2000/svg">
<path d="M58.81 2.54C58.81 2.54 49.96 5.87 44.27 5.87C43.13 5.87 42.11 5.74 41.32 5.41C39.54 4.68 38.47 0 36.53 0C36.1 0 35.63 0.23 35.1 0.79C13.92 22.93 0 12.77 0 19.65C0 28.14 8.81 30.7 17.91 30.7C25.8 30.7 33.91 28.78 36.71 27.14C38.06 26.35 39.58 25.83 41.17 25.47V30.77H59.18V21.11C65.17 12.61 58.82 2.55 58.82 2.55L58.81 2.54ZM35.4 24.92C34.48 25.46 32.24 26.29 28.7 27.01C25.18 27.73 21.34 28.12 17.91 28.12C13.23 28.12 9.35 27.41 6.71 26.06C5.36 25.37 4.32 24.51 3.65 23.51C2.92 22.43 2.57 21.17 2.57 19.64C2.57 19.61 2.57 19.58 2.57 19.55C2.7 19.5 2.92 19.44 3.27 19.37C3.9 19.25 4.72 19.16 5.67 19.06C8.63 18.74 13.09 18.25 18.46 16C20.88 14.98 23.3 13.68 25.68 12.12L27.25 13.52C27.48 13.72 27.78 13.85 28.11 13.85C28.82 13.85 29.4 13.27 29.4 12.56C29.4 12.18 29.23 11.84 28.97 11.6L27.86 10.61C28.14 10.4 28.42 10.19 28.71 9.98L30 11.14C30.23 11.34 30.53 11.47 30.86 11.47C31.57 11.47 32.15 10.89 32.15 10.18C32.15 9.8 31.99 9.46 31.72 9.22L30.76 8.36C31.03 8.13 31.3 7.91 31.58 7.67L32.78 8.75C33.01 8.95 33.31 9.08 33.64 9.08C34.35 9.08 34.93 8.5 34.93 7.79C34.93 7.41 34.76 7.07 34.5 6.83L33.52 5.95C34.49 5.05 35.46 4.11 36.42 3.12C36.62 3.43 36.81 3.78 36.96 4.04C37.79 5.48 38.73 7.12 40.36 7.78C41.43 8.21 42.71 8.43 44.28 8.43C48.62 8.43 54.44 6.73 57.56 5.7C57.98 6.66 58.47 7.95 58.79 9.42C59.68 13.4 59.07 16.88 56.98 19.75C55.71 21.5 52.01 21.76 48.09 22.04C43.94 22.33 39.23 22.67 35.41 24.91L35.4 24.92ZM43.73 28.19V25.02C48.41 24.41 53.35 24.64 56.59 23.18V28.19H43.73Z" fill="#00A8E8"/>
</svg>
