<?xml version="1.0" encoding="UTF-8"?>
<svg id="Layer_2" data-name="Layer 2" xmlns="http://www.w3.org/2000/svg" viewBox="0 0 437.78 353.5">
  <g id="Layer_1-2" data-name="Layer 1">
    <g>
      <path d="m437.78,186.25c0-57-45.09-103.66-101.48-106.18-3.93-7.67-14.24-25.53-32.4-42.53C282.12,17.16,244.52-5.68,189.16,1.28c-43.97,5.53-78.51,28.28-99.87,65.82-7.26,12.76-16.61,33.69-20.87,62.08C29.05,135.81,0,169.84,0,210.48c0,22.05,8.46,42.73,23.83,58.24,15.42,15.56,36.03,24.13,58.04,24.13l257.05-.03-.03-.52c55.17-3.82,98.89-49.92,98.89-106.04Zm-106.29,92.29h-7.42l.02.27-242.21.03c-37.42,0-67.87-30.67-67.87-68.37,0-35.28,26.36-64.56,61.3-68.11l5.14-.52,1.02-5.07.28-1.68c4.19-32.46,23.21-109.14,109.17-119.94,6.33-.79,12.52-1.19,18.57-1.19,32.19,0,60.53,11.2,84.47,33.43,13.01,12.08,21.71,24.85,26.59,33.12-36.26,3.77-67.87,26.04-83.99,57.93h15.98c16.38-26.92,46.05-44.5,78.95-44.5,50.89,0,92.29,41.4,92.29,92.29s-41.4,92.29-92.29,92.29Z" fill="#fff"/>
      <rect x="89.1" y="312.76" width="14" height="40.73" fill="#fff"/>
      <rect x="164.88" y="312.76" width="14" height="40.73" fill="#fff"/>
      <rect x="236.88" y="312.76" width="14" height="40.73" fill="#fff"/>
      <rect x="310.77" y="312.76" width="14" height="40.73" fill="#fff"/>
    </g>
  </g>
</svg>