<?xml version="1.0" encoding="UTF-8"?>
<svg id="Layer_2" data-name="Layer 2" xmlns="http://www.w3.org/2000/svg" viewBox="0 0 513.9 507.16">
  <g id="Layer_1-2" data-name="Layer 1">
    <g>
      <path d="m512.37,172.83c-1.23-2.1-4.27-5.62-10.87-5.62-2.92,0-5.7.69-7.11,1.11-10.63,1.95-19.35,2.78-29.07,2.78-59.09,0-105.38-49.92-105.38-113.65,0-12.58,1.94-24.93,5.77-36.71.92-2.42,3.12-9.62-.74-15.35-2.35-3.48-6.23-5.4-10.92-5.4-2.46,0-5.16.5-8.24,1.53-26.6,8.9-50.65,26.23-67.71,48.79-15.15,20.04-24.27,43.11-26.79,67.39,4.33,1.42,8.89,3.11,13.59,5.1,1.68-23.08,10.01-45.07,24.36-64.04,15.38-20.33,37.04-35.94,60.99-43.96,1.25-.42,2.18-.63,2.83-.72-.1.58-.27,1.22-.48,1.73l-.15.41c-4.33,13.25-6.52,27.12-6.52,41.24,0,71.58,52.44,127.65,119.38,127.65,10.74,0,20.31-.92,32.01-3.09l.43-.08.42-.13c.1-.03.22-.07.35-.1-11.96,21.26-27.85,39.06-45.97,51.48-7.5,5.14-15.29,9.34-23.34,12.57,2.85,3.59,5.57,7.5,8.11,11.77,7.95-3.43,15.68-7.68,23.14-12.8,19.94-13.67,37.35-33.16,50.37-56.38,1.28-2.29,5.19-9.26,1.52-15.53Z" fill="#fff"/>
      <path d="m336.3,218.3c-3.93-7.67-14.24-25.53-32.4-42.53-21.79-20.38-59.38-43.23-114.74-36.27-43.97,5.53-78.51,28.28-99.87,65.82-7.26,12.76-16.61,33.69-20.87,62.09C29.05,274.04,0,308.07,0,348.7c0,22.05,8.46,42.73,23.83,58.24,15.42,15.56,36.03,24.13,58.04,24.13h34.12v-14h-34.12c-37.42,0-67.87-30.67-67.87-68.37,0-35.28,26.35-64.56,61.3-68.1l5.14-.52,1.02-5.07.28-1.68c4.19-32.46,23.21-109.14,109.17-119.94,6.33-.79,12.52-1.19,18.57-1.19,32.19,0,60.53,11.2,84.47,33.43,13.01,12.08,21.71,24.85,26.59,33.12-36.26,3.77-67.87,26.04-83.99,57.93h15.98c16.38-26.92,46.05-44.5,78.95-44.5,50.89,0,92.29,41.4,92.29,92.29s-41.4,92.29-92.29,92.29h-7.42l.02.27h-35.12v14h49.97s-.03-.53-.03-.53c55.17-3.82,98.88-49.92,98.88-106.04s-45.09-103.66-101.48-106.19Z" fill="#fff"/>
      <path d="m268.76,455.93l-11.33-5.53,3.16-1.96c3.29-2.04,4.3-6.35,2.26-9.64-2.04-3.29-6.35-4.3-9.64-2.26l-10.66,6.6-4.97-2.42v-23.5s5.93-3.83,5.93-3.83l10.74,5.03c.96.45,1.97.66,2.96.66,2.63,0,5.15-1.49,6.34-4.03,1.64-3.5.13-7.67-3.37-9.31l-2.81-1.32,11.19-7.24c3.25-2.1,4.18-6.43,2.08-9.68-2.1-3.25-6.43-4.18-9.68-2.08l-10.59,6.85-.04-3.72c-.05-3.87-3.22-7-7.08-6.92-3.87.05-6.96,3.22-6.91,7.08l.15,12.54-5.64,3.64-20.58-11.89v-6.24l10.61-6.68c3.27-2.06,4.25-6.38,2.19-9.65-2.06-3.27-6.38-4.25-9.65-2.19l-3.15,1.98v-12.61c0-3.87-3.13-7-7-7s-7,3.13-7,7v13.33l-2.64-1.65c-3.28-2.05-7.6-1.05-9.65,2.23-2.05,3.28-1.05,7.6,2.23,9.65l10.06,6.29v5.23l-21.3,12.29-5.76-3.72.15-12.54c.05-3.87-3.05-7.04-6.91-7.08-3.88-.08-7.04,3.05-7.08,6.91l-.04,3.72-10.59-6.85c-3.25-2.1-7.58-1.17-9.68,2.08-2.1,3.25-1.17,7.58,2.08,9.68l11.19,7.24-2.81,1.32c-3.5,1.64-5.01,5.81-3.37,9.31,1.19,2.54,3.71,4.03,6.34,4.03.99,0,2-.21,2.96-.66l10.74-5.03,6.19,4v23.2s-5.24,2.55-5.24,2.55l-10.65-6.6c-3.29-2.04-7.6-1.03-9.64,2.26-2.04,3.29-1.02,7.6,2.26,9.64l3.16,1.96-11.33,5.53c-3.47,1.7-4.92,5.89-3.22,9.36,1.21,2.49,3.7,3.93,6.3,3.93,1.03,0,2.08-.23,3.07-.71l11.98-5.85-.33,3.09c-.4,3.84,2.39,7.29,6.23,7.69.25.03.49.04.74.04,3.54,0,6.58-2.67,6.95-6.27l1.24-11.79,5.45-2.66,19.85,11.47v6.77l-10.61,6.68c-3.27,2.06-4.25,6.38-2.19,9.65,1.33,2.11,3.61,3.27,5.93,3.27,1.27,0,2.56-.35,3.72-1.08l3.15-1.98v12.61c0,3.87,3.13,7,7,7s7-3.13,7-7v-13.33l2.64,1.65c3.28,2.05,7.6,1.05,9.65-2.23,2.05-3.28,1.05-7.6-2.23-9.65l-10.06-6.28v-5.19l21.3-12.29,5.3,2.58,1.24,11.79c.38,3.6,3.41,6.27,6.95,6.27.24,0,.49-.01.74-.04,3.84-.4,6.63-3.85,6.23-7.69l-.33-3.09,11.98,5.84c.99.48,2.04.71,3.07.71,2.59,0,5.08-1.45,6.3-3.93,1.7-3.47.25-7.67-3.22-9.36Zm-86.37-39.06l20.61-11.89,20.6,11.9v23.79s-20.61,11.89-20.61,11.89l-20.6-11.9v-23.79Z" fill="#fff"/>
    </g>
  </g>
</svg>