<?xml version="1.0" encoding="UTF-8"?>
<svg id="Layer_2" data-name="Layer 2" xmlns="http://www.w3.org/2000/svg" viewBox="0 0 458.98 466.96">
  <g id="Layer_1-2" data-name="Layer 1">
    <g>
      <rect x="268.1" y="1.6" width="14" height="26.73" transform="translate(11.89 96.34) rotate(-20.29)" fill="#fff"/>
      <rect x="350.51" y="10.7" width="29.2" height="14" transform="translate(207.59 347.55) rotate(-67.25)" fill="#fff"/>
      <rect x="416.59" y="70.5" width="27.13" height="14" transform="translate(28.71 250.37) rotate(-33.51)" fill="#fff"/>
      <rect x="436.23" y="159.28" width="14" height="29.77" transform="translate(205.78 586.97) rotate(-81.54)" fill="#fff"/>
      <rect x="192.25" y="53.06" width="14" height="24.7" transform="translate(26.69 184.58) rotate(-52.8)" fill="#fff"/>
      <path d="m312.13,32.57c-8.74,0-17.5,1.06-26.07,3.15-40.93,9.99-70.87,41.89-80.41,80.18,4.69-.68,9.7-1.24,14.97-1.61,9.58-31.17,34.84-56.7,68.75-64.97,7.48-1.82,15.13-2.75,22.75-2.75,44.16,0,82.33,30.01,92.81,72.97,8.15,33.41-2.42,67.08-24.97,89.93,2.15,4.28,4.24,8.75,6.26,13.41,28.37-26.17,42.09-66.58,32.31-106.66-12.02-49.26-55.78-83.66-106.41-83.66Z" fill="#fff"/>
      <path d="m311.86,207.33c-3.76-7.27-13.3-23.64-29.93-39.2-20.23-18.93-55.14-40.14-106.53-33.68-40.84,5.13-72.91,26.27-92.75,61.13-6.71,11.78-15.33,31.08-19.3,57.22C26.87,259.13,0,290.73,0,328.44c0,20.53,7.88,39.79,22.19,54.23,14.36,14.49,33.55,22.47,54.05,22.47h45.15v-14.01h-45.15c-34.32,0-62.24-28.12-62.24-62.7,0-32.35,24.17-59.2,56.22-62.46l5.14-.52,1.02-5.06.27-1.59c3.86-29.9,21.37-100.52,100.5-110.46,5.83-.73,11.52-1.1,17.1-1.1,29.62,0,55.71,10.31,77.74,30.75,11.64,10.8,19.54,22.21,24.1,29.83-33.46,3.76-62.56,24.48-77.39,54.01h15.98c15.09-24.59,42.27-40.62,72.4-40.62,46.77,0,84.82,38.05,84.82,84.82s-38.05,84.82-84.82,84.82h-7.43v.25s-5.31,0-5.31,0v14h20.18s-.03-.52-.03-.52c51.05-3.8,91.41-46.55,91.41-98.55s-41.76-96.21-94.04-98.71Z" fill="#fff"/>
      <path d="m274.15,415.73l-11.33-5.53,3.16-1.96c3.29-2.04,4.3-6.35,2.26-9.64-2.04-3.29-6.35-4.3-9.64-2.26l-10.66,6.61-4.97-2.43v-23.5s5.93-3.83,5.93-3.83l10.74,5.03c.96.45,1.97.66,2.96.66,2.63,0,5.15-1.49,6.34-4.03,1.64-3.5.13-7.67-3.37-9.31l-2.81-1.32,11.19-7.24c3.25-2.1,4.18-6.43,2.08-9.68-2.1-3.25-6.43-4.18-9.68-2.08l-10.59,6.85-.05-3.72c-.05-3.84-3.17-6.92-7-6.92-.03,0-.06,0-.09,0-3.87.05-6.96,3.22-6.91,7.08l.15,12.54-5.63,3.64-20.58-11.89v-6.24l10.61-6.68c3.27-2.06,4.25-6.38,2.19-9.65-2.06-3.27-6.38-4.26-9.65-2.19l-3.15,1.98v-12.61c0-3.87-3.13-7-7-7s-7,3.13-7,7v13.33l-2.64-1.65c-3.28-2.05-7.6-1.05-9.65,2.23-2.05,3.28-1.05,7.6,2.23,9.65l10.06,6.28v5.23l-21.29,12.29-5.76-3.72.15-12.54c.05-3.87-3.05-7.04-6.91-7.08-.03,0-.06,0-.09,0-3.83,0-6.95,3.08-7,6.92l-.04,3.72-10.59-6.85c-3.25-2.1-7.58-1.17-9.68,2.08-2.1,3.25-1.17,7.58,2.08,9.68l11.19,7.24-2.81,1.32c-3.5,1.64-5.01,5.81-3.37,9.31,1.19,2.54,3.71,4.03,6.34,4.03.99,0,2-.21,2.96-.66l10.74-5.03,6.19,4v23.2s-5.24,2.55-5.24,2.55l-10.65-6.6c-3.29-2.04-7.6-1.03-9.64,2.26-2.04,3.29-1.02,7.6,2.26,9.64l3.16,1.96-11.33,5.53c-3.47,1.7-4.92,5.89-3.22,9.36,1.21,2.49,3.7,3.93,6.3,3.93,1.03,0,2.08-.23,3.07-.71l11.98-5.84-.32,3.09c-.4,3.84,2.39,7.29,6.23,7.69.25.03.49.04.74.04,3.54,0,6.58-2.67,6.95-6.27l1.24-11.79,5.45-2.66,19.85,11.47v6.77l-10.61,6.68c-3.27,2.06-4.25,6.38-2.19,9.65,1.33,2.11,3.6,3.27,5.93,3.27,1.27,0,2.56-.35,3.72-1.08l3.15-1.98v12.61c0,3.87,3.13,7,7,7s7-3.13,7-7v-13.33l2.64,1.65c3.28,2.05,7.6,1.05,9.65-2.23,2.05-3.28,1.05-7.6-2.23-9.65l-10.06-6.29v-5.19l21.3-12.29,5.3,2.59,1.24,11.79c.38,3.6,3.42,6.27,6.95,6.27.24,0,.49-.01.74-.04,3.84-.4,6.63-3.85,6.23-7.69l-.32-3.09,11.98,5.84c.99.48,2.04.71,3.07.71,2.59,0,5.08-1.45,6.3-3.93,1.7-3.47.25-7.67-3.22-9.36Zm-86.37-39.06l20.61-11.89,20.6,11.9v23.79s-20.61,11.89-20.61,11.89l-20.6-11.9v-23.79Z" fill="#fff"/>
    </g>
  </g>
</svg>