<?xml version="1.0" encoding="UTF-8"?>
<svg id="Layer_2" data-name="Layer 2" xmlns="http://www.w3.org/2000/svg" viewBox="0 0 437.78 487.22">
  <g id="Layer_1-2" data-name="Layer 1">
    <g>
      <path d="m437.78,186.25c0-57-45.09-103.66-101.48-106.18-3.93-7.67-14.24-25.53-32.4-42.53C282.12,17.16,244.52-5.68,189.17,1.28c-43.97,5.53-78.51,28.28-99.87,65.82-7.26,12.76-16.61,33.69-20.87,62.09C29.05,135.81,0,169.84,0,210.48c0,22.05,8.46,42.73,23.83,58.24,15.42,15.56,36.03,24.13,58.04,24.13h76.82s6.48-14.01,6.48-14.01h-83.3c-37.42.01-67.87-30.66-67.87-68.36,0-35.28,26.35-64.56,61.3-68.11l5.14-.52,1.01-5.07.28-1.67c4.19-32.46,23.21-109.14,109.17-119.94,6.33-.79,12.52-1.19,18.57-1.19,32.19,0,60.53,11.2,84.47,33.43,13.01,12.08,21.71,24.85,26.59,33.12-36.26,3.77-67.87,26.04-83.99,57.93h15.98c16.38-26.92,46.05-44.5,78.95-44.5,50.89,0,92.29,41.4,92.29,92.29s-41.4,92.29-92.29,92.29h-7.45l.02.27h-12.23s-7.56,14-7.56,14h34.69s-.03-.53-.03-.53c55.16-3.83,98.86-49.92,98.86-106.04Z" fill="#fff"/>
      <path d="m317.74,237.24h-115.46l-44.68,109.9,41.26-.26-38.51,140.33,158.46-167.75h-43.23s42.16-82.22,42.16-82.22Zm-31.41,96.22l-97.63,103.36,28.55-104.05-38.79.25,33.25-81.77h83.12l-42.16,82.22h33.66Z" fill="#fff"/>
      <polygon points="54.35 324.04 38.32 361.46 53.55 361.46 69.58 324.04 54.35 324.04" fill="#fff"/>
      <polygon points="56.4 422.79 60.15 424.21 70.83 424.21 86.17 383.72 71.2 383.72 56.4 422.79" fill="#fff"/>
      <polygon points="106.82 361.33 121.79 361.33 135.11 326.16 120.14 326.16 106.82 361.33" fill="#fff"/>
    </g>
  </g>
</svg>